<svg version="1.1" xmlns="http://www.w3.org/2000/svg" xmlns:xlink="http://www.w3.org/1999/xlink" width="1840.1689453125" height="2071"><defs/><g><g transform="translate(-22,-14) scale(1,1)"><rect fill="#C0C0C0" stroke="none" x="71" y="31" width="517.2822265625" height="203" opacity="0.2"/></g><g transform="translate(-22,-14) scale(1,1)"><rect fill="#ffffff" stroke="none" x="64" y="24" width="517.2822265625" height="203"/></g><g transform="translate(-22,-14) scale(1,1)"><path fill="none" stroke="#000000" d="M 64 24 L 581.2822265625 24 L 581.2822265625 227 L 64 227 L 64 24 Z Z" stroke-miterlimit="10"/></g><g transform="translate(-22,-14) scale(1,1)"><path fill="none" stroke="#000000" d="M 64 62 L 581.2822265625 62" stroke-miterlimit="10"/></g><g transform="translate(-22,-14) scale(1,1)"><path fill="none" stroke="#000000" d="M 64 100 L 581.2822265625 100" stroke-miterlimit="10"/></g><g transform="translate(-22,-14) scale(1,1)"><g><path fill="none" stroke="none"/><text fill="#000000" stroke="none" font-family="Arial" font-size="13px" font-style="normal" font-weight="normal" text-decoration="none" x="275.665283203125" y="41.5">«lancet::spatial»</text></g></g><g transform="translate(-22,-14) scale(1,1)"><g><path fill="none" stroke="none"/><text fill="#000000" stroke="none" font-family="Arial" font-size="13px" font-style="normal" font-weight="bold" text-decoration="none" x="229.790771484375" y="56.5">SpatialFittingPointAccuracyDate</text></g></g><g transform="translate(-22,-14) scale(1,1)"><g><path fill="none" stroke="none"/><text fill="#000000" stroke="none" font-family="Arial" font-size="13px" font-style="normal" font-weight="normal" text-decoration="none" x="69" y="79.5">«原始点»-sourcePoint3D: mitk::Point3D = mitk::Point3D(0.0,0.0,0.0)</text></g></g><g transform="translate(-22,-14) scale(1,1)"><g><path fill="none" stroke="none"/><text fill="#000000" stroke="none" font-family="Arial" font-size="13px" font-style="normal" font-weight="normal" text-decoration="none" x="69" y="94.5">«目标点»-TargetPoint3D: mitk::Point3D = mitk::Point3D(0.0,0.0,0.0)</text></g></g><g transform="translate(-22,-14) scale(1,1)"><g><path fill="none" stroke="none"/><text fill="#000000" stroke="none" font-family="Arial" font-size="13px" font-style="normal" font-weight="normal" text-decoration="none" x="69" y="117.5">+SpatialFittingPointAccuracyDate()</text></g></g><g transform="translate(-22,-14) scale(1,1)"><g><path fill="none" stroke="none"/><text fill="#000000" stroke="none" font-family="Arial" font-size="13px" font-style="normal" font-weight="normal" text-decoration="none" x="69" y="132.5">+SpatialFittingPointAccuracyDate(const mitk::Point3D&amp; src, const mitk::Point3D&amp; target)</text></g></g><g transform="translate(-22,-14) scale(1,1)"><g><path fill="none" stroke="none"/><text fill="#000000" stroke="none" font-family="Arial" font-size="13px" font-style="normal" font-weight="normal" text-decoration="none" x="69" y="147.5">«mitk::Point3D»+GetSourcePoint()</text></g></g><g transform="translate(-22,-14) scale(1,1)"><g><path fill="none" stroke="none"/><text fill="#000000" stroke="none" font-family="Arial" font-size="13px" font-style="normal" font-weight="normal" text-decoration="none" x="69" y="162.5">«void»+SetSourcePoint(const mitk::Point3D&amp; pt)</text></g></g><g transform="translate(-22,-14) scale(1,1)"><g><path fill="none" stroke="none"/><text fill="#000000" stroke="none" font-family="Arial" font-size="13px" font-style="normal" font-weight="normal" text-decoration="none" x="69" y="177.5">«mitk::Point3D»+GetTargetPoint()</text></g></g><g transform="translate(-22,-14) scale(1,1)"><g><path fill="none" stroke="none"/><text fill="#000000" stroke="none" font-family="Arial" font-size="13px" font-style="normal" font-weight="normal" text-decoration="none" x="69" y="192.5">«void»+SetTargetPoint(const mitk::Point3D&amp; pt)</text></g></g><g transform="translate(-22,-14) scale(1,1)"><g><path fill="none" stroke="none"/><text fill="#000000" stroke="none" font-family="Arial" font-size="13px" font-style="normal" font-weight="normal" text-decoration="none" x="69" y="207.5">«SpatialFittingLineAccuracyDate»+ToLine()</text></g></g><g transform="translate(-22,-14) scale(1,1)"><g><path fill="none" stroke="none"/><text fill="#000000" stroke="none" font-family="Arial" font-size="13px" font-style="normal" font-weight="normal" text-decoration="none" x="69" y="222.5">«double»+ Compute()</text></g></g><g transform="translate(-22,-14) scale(1,1)"><rect fill="#C0C0C0" stroke="none" x="39" y="351" width="397.38134765625" height="113" opacity="0.2"/></g><g transform="translate(-22,-14) scale(1,1)"><rect fill="#ffffff" stroke="none" x="32" y="344" width="397.38134765625" height="113"/></g><g transform="translate(-22,-14) scale(1,1)"><path fill="none" stroke="#000000" d="M 32 344 L 429.38134765625 344 L 429.38134765625 457 L 32 457 L 32 344 Z Z" stroke-miterlimit="10"/></g><g transform="translate(-22,-14) scale(1,1)"><path fill="none" stroke="#000000" d="M 32 382 L 429.38134765625 382" stroke-miterlimit="10"/></g><g transform="translate(-22,-14) scale(1,1)"><path fill="none" stroke="#000000" d="M 32 405 L 429.38134765625 405" stroke-miterlimit="10"/></g><g transform="translate(-22,-14) scale(1,1)"><g><path fill="none" stroke="none"/><text fill="#000000" stroke="none" font-family="Arial" font-size="13px" font-style="normal" font-weight="normal" text-decoration="none" x="183.71484375" y="361.5">«lancet::spatial»</text></g></g><g transform="translate(-22,-14) scale(1,1)"><g><path fill="none" stroke="none"/><text fill="#000000" stroke="none" font-family="Arial" font-size="13px" font-style="normal" font-weight="bold" text-decoration="none" x="86.5322265625" y="376.5">SpatialFittingNavigationToolToNavigationToolFilter</text></g></g><g transform="translate(-22,-14) scale(1,1)"><g><path fill="none" stroke="none"/><text fill="#000000" stroke="none" font-family="Arial" font-size="13px" font-style="normal" font-weight="normal" text-decoration="none" x="37" y="399.5">-baseUCSTool: mitk::NavigationData::Pointer</text></g></g><g transform="translate(-22,-14) scale(1,1)"><g><path fill="none" stroke="none"/><text fill="#000000" stroke="none" font-family="Arial" font-size="13px" font-style="normal" font-weight="normal" text-decoration="none" x="37" y="422.5">«mitk::NavigationData::Pointer»+GetBaseUCSTool()</text></g></g><g transform="translate(-22,-14) scale(1,1)"><g><path fill="none" stroke="none"/><text fill="#000000" stroke="none" font-family="Arial" font-size="13px" font-style="normal" font-weight="normal" text-decoration="none" x="37" y="437.5">«void»+SetBaseUCSTool(mitk::NavigationData::Pointer ucs)</text></g></g><g transform="translate(-22,-14) scale(1,1)"><g><path fill="none" stroke="none"/><text fill="#000000" stroke="none" font-family="Arial" font-size="13px" font-style="normal" font-weight="normal" text-decoration="none" x="37" y="452.5">«virtual void»#GenerateData() {type="override"}</text></g></g><g transform="translate(-22,-14) scale(1,1)"><rect fill="#C0C0C0" stroke="none" x="527" y="343" width="390.81787109375" height="113" opacity="0.2"/></g><g transform="translate(-22,-14) scale(1,1)"><rect fill="#ffffff" stroke="none" x="520" y="336" width="390.81787109375" height="113"/></g><g transform="translate(-22,-14) scale(1,1)"><path fill="none" stroke="#000000" d="M 520 336 L 910.81787109375 336 L 910.81787109375 449 L 520 449 L 520 336 Z Z" stroke-miterlimit="10"/></g><g transform="translate(-22,-14) scale(1,1)"><path fill="none" stroke="#000000" d="M 520 374 L 910.81787109375 374" stroke-miterlimit="10"/></g><g transform="translate(-22,-14) scale(1,1)"><path fill="none" stroke="#000000" d="M 520 397 L 910.81787109375 397" stroke-miterlimit="10"/></g><g transform="translate(-22,-14) scale(1,1)"><g><path fill="none" stroke="none"/><text fill="#000000" stroke="none" font-family="Arial" font-size="13px" font-style="normal" font-weight="normal" text-decoration="none" x="668.43310546875" y="353.5">«lancet::spatial»</text></g></g><g transform="translate(-22,-14) scale(1,1)"><g><path fill="none" stroke="none"/><text fill="#000000" stroke="none" font-family="Arial" font-size="13px" font-style="normal" font-weight="bold" text-decoration="none" x="595.457275390625" y="368.5">SpatialFittingNavigationToolToSpaceFilter</text></g></g><g transform="translate(-22,-14) scale(1,1)"><g><path fill="none" stroke="none"/><text fill="#000000" stroke="none" font-family="Arial" font-size="13px" font-style="normal" font-weight="normal" text-decoration="none" x="525" y="391.5">-convertMatrix: itk::SmartPointer&lt;vtkMatrix4x4&gt;</text></g></g><g transform="translate(-22,-14) scale(1,1)"><g><path fill="none" stroke="none"/><text fill="#000000" stroke="none" font-family="Arial" font-size="13px" font-style="normal" font-weight="normal" text-decoration="none" x="525" y="414.5">«itk::SmartPointer&lt;vtkMatrix4x4&gt;»+GetConvertMatrix()</text></g></g><g transform="translate(-22,-14) scale(1,1)"><g><path fill="none" stroke="none"/><text fill="#000000" stroke="none" font-family="Arial" font-size="13px" font-style="normal" font-weight="normal" text-decoration="none" x="525" y="429.5">«void»+SetConvertMatrix(matrix: itk::SmartPointer&lt;vtkMatrix4x4&gt;)</text></g></g><g transform="translate(-22,-14) scale(1,1)"><g><path fill="none" stroke="none"/><text fill="#000000" stroke="none" font-family="Arial" font-size="13px" font-style="normal" font-weight="normal" text-decoration="none" x="525" y="444.5">«virtual void»#GenerateData() {type="override"}</text></g></g><g transform="translate(-22,-14) scale(1,1)"><rect fill="#C0C0C0" stroke="none" x="255" y="736" width="445.0712890625" height="280" opacity="0.2"/></g><g transform="translate(-22,-14) scale(1,1)"><rect fill="#ffffff" stroke="none" x="248" y="729" width="445.0712890625" height="280"/></g><g transform="translate(-22,-14) scale(1,1)"><path fill="none" stroke="#000000" d="M 248 729 L 693.0712890625 729 L 693.0712890625 1009 L 248 1009 L 248 729 Z Z" stroke-miterlimit="10"/></g><g transform="translate(-22,-14) scale(1,1)"><path fill="none" stroke="#000000" d="M 248 754 L 693.0712890625 754" stroke-miterlimit="10"/></g><g transform="translate(-22,-14) scale(1,1)"><path fill="none" stroke="#000000" d="M 248 807 L 693.0712890625 807" stroke-miterlimit="10"/></g><g transform="translate(-22,-14) scale(1,1)"><g><path fill="none" stroke="none"/><text fill="#000000" stroke="none" font-family="Arial" font-size="13px" font-style="normal" font-weight="bold" text-decoration="none" x="364.67578125" y="748.5">SpatialFittingNavigationToolCollector</text></g></g><g transform="translate(-22,-14) scale(1,1)"><g><path fill="none" stroke="none"/><text fill="#000000" stroke="none" font-family="Arial" font-size="13px" font-style="normal" font-weight="normal" text-decoration="none" x="253" y="771.5">-qtClockTrigger: QTimer</text></g></g><g transform="translate(-22,-14) scale(1,1)"><g><path fill="none" stroke="none"/><text fill="#000000" stroke="none" font-family="Arial" font-size="13px" font-style="normal" font-weight="normal" text-decoration="none" x="253" y="786.5">+numberForMean: unsigned int</text></g></g><g transform="translate(-22,-14) scale(1,1)"><g><path fill="none" stroke="none"/><text fill="#000000" stroke="none" font-family="Arial" font-size="13px" font-style="normal" font-weight="normal" text-decoration="none" x="253" y="801.5">-workState: WorkStatus</text></g></g><g transform="translate(-22,-14) scale(1,1)"><g><path fill="none" stroke="none"/><text fill="#000000" stroke="none" font-family="Arial" font-size="13px" font-style="normal" font-weight="normal" text-decoration="none" x="253" y="824.5">«long»+GetInterval()</text></g></g><g transform="translate(-22,-14) scale(1,1)"><g><path fill="none" stroke="none"/><text fill="#000000" stroke="none" font-family="Arial" font-size="13px" font-style="normal" font-weight="normal" text-decoration="none" x="253" y="839.5">+SetInterval(value: long)</text></g></g><g transform="translate(-22,-14) scale(1,1)"><g><path fill="none" stroke="none"/><text fill="#000000" stroke="none" font-family="Arial" font-size="13px" font-style="normal" font-weight="normal" text-decoration="none" x="253" y="854.5">«unsigned int»+GetNumberForMean()</text></g></g><g transform="translate(-22,-14) scale(1,1)"><g><path fill="none" stroke="none"/><text fill="#000000" stroke="none" font-family="Arial" font-size="13px" font-style="normal" font-weight="normal" text-decoration="none" x="253" y="869.5">«void»+SetNumberForMean(number: unsigned int)</text></g></g><g transform="translate(-22,-14) scale(1,1)"><g><path fill="none" stroke="none"/><text fill="#000000" stroke="none" font-family="Arial" font-size="13px" font-style="normal" font-weight="normal" text-decoration="none" x="253" y="884.5">«double»+GetAccuracyRange()</text></g></g><g transform="translate(-22,-14) scale(1,1)"><g><path fill="none" stroke="none"/><text fill="#000000" stroke="none" font-family="Arial" font-size="13px" font-style="normal" font-weight="normal" text-decoration="none" x="253" y="899.5">«void»+SetAccuracyRange(value: double)</text></g></g><g transform="translate(-22,-14) scale(1,1)"><g><path fill="none" stroke="none"/><text fill="#000000" stroke="none" font-family="Arial" font-size="13px" font-style="normal" font-weight="normal" text-decoration="none" x="253" y="914.5">«WorkStatus»+GetWorkState()</text></g></g><g transform="translate(-22,-14) scale(1,1)"><g><path fill="none" stroke="none"/><text fill="#000000" stroke="none" font-family="Arial" font-size="13px" font-style="normal" font-weight="normal" text-decoration="none" x="253" y="929.5">«bool»+Stop()</text></g></g><g transform="translate(-22,-14) scale(1,1)"><g><path fill="none" stroke="none"/><text fill="#000000" stroke="none" font-family="Arial" font-size="13px" font-style="normal" font-weight="normal" text-decoration="none" x="253" y="944.5">«bool»+Start(interval: long = 0)</text></g></g><g transform="translate(-22,-14) scale(1,1)"><g><path fill="none" stroke="none"/><text fill="#000000" stroke="none" font-family="Arial" font-size="13px" font-style="normal" font-weight="normal" text-decoration="none" x="253" y="959.5">«[signal] void»+Fail(step: int)</text></g></g><g transform="translate(-22,-14) scale(1,1)"><g><path fill="none" stroke="none"/><text fill="#000000" stroke="none" font-family="Arial" font-size="13px" font-style="normal" font-weight="normal" text-decoration="none" x="253" y="974.5">«[signal] void»+Setp(step: int, data: mitk::NavigationData*)</text></g></g><g transform="translate(-22,-14) scale(1,1)"><g><path fill="none" stroke="none"/><text fill="#000000" stroke="none" font-family="Arial" font-size="13px" font-style="normal" font-weight="normal" text-decoration="none" x="253" y="989.5">«[signal] void »+complete(data: mitk::NavigationData*)</text></g></g><g transform="translate(-22,-14) scale(1,1)"><g><path fill="none" stroke="none"/><text fill="#000000" stroke="none" font-family="Arial" font-size="13px" font-style="normal" font-weight="normal" text-decoration="none" x="253" y="1004.5">«virtual void»#GenerateData() {type="override"}</text></g></g><g transform="translate(-22,-14) scale(1,1)"><rect fill="#C0C0C0" stroke="none" x="919" y="759" width="59.5654296875" height="24" opacity="0.2"/></g><g transform="translate(-22,-14) scale(1,1)"><rect fill="#ffffff" stroke="none" x="912" y="752" width="59.5654296875" height="24"/></g><g transform="translate(-22,-14) scale(1,1)"><path fill="none" stroke="#000000" d="M 912 752 L 971.5654296875 752 L 971.5654296875 776 L 912 776 L 912 752 Z Z" stroke-miterlimit="10"/></g><g transform="translate(-22,-14) scale(1,1)"><rect fill="#ffffff" stroke="none" x="912" y="752" width="59.5654296875" height="24"/></g><g transform="translate(-22,-14) scale(1,1)"><path fill="none" stroke="#000000" d="M 912 752 L 971.5654296875 752 L 971.5654296875 776 L 912 776 L 912 752 Z Z" stroke-miterlimit="10"/></g><g transform="translate(-22,-14) scale(1,1)"><g><path fill="none" stroke="none"/><text fill="#000000" stroke="none" font-family="Arial" font-size="13px" font-style="normal" font-weight="bold" text-decoration="none" x="917.94091796875" y="771.5">QObject</text><path fill="none" stroke="#000000" d="M 967.0654296875 771.5 L 916.5 771.5" stroke-miterlimit="10"/></g></g><g transform="translate(-22,-14) scale(1,1)"><rect fill="#C0C0C0" stroke="none" x="351" y="591" width="244.96142578125" height="37" opacity="0.2"/></g><g transform="translate(-22,-14) scale(1,1)"><rect fill="#ffffff" stroke="none" x="344" y="584" width="244.96142578125" height="37"/></g><g transform="translate(-22,-14) scale(1,1)"><path fill="none" stroke="#000000" d="M 344 584 L 588.96142578125 584 L 588.96142578125 621 L 344 621 L 344 584 Z Z" stroke-miterlimit="10"/></g><g transform="translate(-22,-14) scale(1,1)"><rect fill="#ffffff" stroke="none" x="344" y="584" width="244.96142578125" height="37"/></g><g transform="translate(-22,-14) scale(1,1)"><path fill="none" stroke="#000000" d="M 344 584 L 588.96142578125 584 L 588.96142578125 621 L 344 621 L 344 584 Z Z" stroke-miterlimit="10"/></g><g transform="translate(-22,-14) scale(1,1)"><g><path fill="none" stroke="none"/><text fill="#000000" stroke="none" font-family="Arial" font-size="13px" font-style="normal" font-weight="normal" text-decoration="none" x="447.336181640625" y="601.5">«mitk»</text></g></g><g transform="translate(-22,-14) scale(1,1)"><g><path fill="none" stroke="none"/><text fill="#000000" stroke="none" font-family="Arial" font-size="13px" font-style="normal" font-weight="bold" text-decoration="none" x="356.285400390625" y="616.5">NavigationDataToNavigationDataFilter</text><path fill="none" stroke="#000000" d="M 584.46142578125 616.5 L 348.5 616.5" stroke-miterlimit="10"/></g></g><g transform="translate(-22,-14) scale(1,1)"><path fill="none" stroke="#000000" d="M 468 728 L 466 622" stroke-miterlimit="10" stroke-dasharray="3"/></g><g transform="translate(-22,-14) scale(1,1)"><path fill="none" stroke="#000000" d="M 470.4004831250717 632.0814556620539 L 466 622 L 461.9829457953653 632.240277121105" stroke-miterlimit="10"/></g><g transform="translate(-22,-14) scale(1,1)"><path fill="none" stroke="#000000" d="M 694 819 L 911 771" stroke-miterlimit="10" stroke-dasharray="3"/></g><g transform="translate(-22,-14) scale(1,1)"><path fill="none" stroke="#000000" d="M 901.9863423350758 777.3050753761992 L 911 771 L 900.1680199874353 769.0847430962408" stroke-miterlimit="10"/></g><g transform="translate(-22,-14) scale(1,1)"><rect fill="#C0C0C0" stroke="none" x="895" y="871" width="142.4658203125" height="90" opacity="0.2"/></g><g transform="translate(-22,-14) scale(1,1)"><rect fill="#ffffff" stroke="none" x="888" y="864" width="142.4658203125" height="90"/></g><g transform="translate(-22,-14) scale(1,1)"><path fill="none" stroke="#000000" d="M 888 864 L 1030.4658203125 864 L 1030.4658203125 954 L 888 954 L 888 864 Z Z" stroke-miterlimit="10"/></g><g transform="translate(-22,-14) scale(1,1)"><path fill="none" stroke="#000000" d="M 888 902 L 1030.4658203125 902" stroke-miterlimit="10"/></g><g transform="translate(-22,-14) scale(1,1)"><g><path fill="none" stroke="none"/><text fill="#000000" stroke="none" font-family="Arial" font-size="13px" font-style="normal" font-weight="normal" text-decoration="none" x="915.868896484375" y="881.5">«enumeration»</text></g></g><g transform="translate(-22,-14) scale(1,1)"><g><path fill="none" stroke="none"/><text fill="#000000" stroke="none" font-family="Arial" font-size="13px" font-style="normal" font-weight="bold" text-decoration="none" x="925.758544921875" y="896.5">WorkStatus</text></g></g><g transform="translate(-22,-14) scale(1,1)"><g><path fill="none" stroke="none"/><text fill="#000000" stroke="none" font-family="Arial" font-size="13px" font-style="normal" font-weight="normal" text-decoration="none" x="893" y="919.5">Unknown: 0x00000000</text></g></g><g transform="translate(-22,-14) scale(1,1)"><g><path fill="none" stroke="none"/><text fill="#000000" stroke="none" font-family="Arial" font-size="13px" font-style="normal" font-weight="normal" text-decoration="none" x="893" y="934.5">Idle: 0x00000001</text></g></g><g transform="translate(-22,-14) scale(1,1)"><g><path fill="none" stroke="none"/><text fill="#000000" stroke="none" font-family="Arial" font-size="13px" font-style="normal" font-weight="normal" text-decoration="none" x="893" y="949.5">Working: 0x000000010</text></g></g><g transform="translate(-22,-14) scale(1,1)"><path fill="none" stroke="#000000" d="M 694 887 L 887 903" stroke-miterlimit="10"/></g><g transform="translate(-22,-14) scale(1,1)"><path fill="#000000" stroke="none" d="M 876.5242859888587 906.3555053206303 L 887 903 L 877.2198510184259 897.9652521514762 L 865.0752118864934 901.1824009854088"/></g><g transform="translate(-22,-14) scale(1,1)"><path fill="none" stroke="#000000" d="M 876.5242859888587 906.3555053206303 L 887 903 L 877.2198510184259 897.9652521514762 L 865.0752118864934 901.1824009854088 L 876.5242859888587 906.3555053206303" stroke-miterlimit="10"/></g><g transform="translate(-22,-14) scale(1,1)"><path fill="none" stroke="#000000" d="M 298 458 L 444 583" stroke-miterlimit="10" stroke-dasharray="3"/></g><g transform="translate(-22,-14) scale(1,1)"><path fill="none" stroke="#000000" d="M 433.5424771282374 579.58822401284 L 444 583 L 439.01790459937354 573.192924726553" stroke-miterlimit="10"/></g><g transform="translate(-22,-14) scale(1,1)"><path fill="none" stroke="#000000" d="M 646 450 L 489 583" stroke-miterlimit="10" stroke-dasharray="3"/></g><g transform="translate(-22,-14) scale(1,1)"><path fill="none" stroke="#000000" d="M 494.0333594102587 573.2191363854125 L 489 583 L 499.4752375588786 579.6430075834074" stroke-miterlimit="10"/></g><g transform="translate(-22,-14) scale(1,1)"><rect fill="#C0C0C0" stroke="none" x="87" y="1663" width="417.63037109375" height="100" opacity="0.2"/></g><g transform="translate(-22,-14) scale(1,1)"><rect fill="#ffffff" stroke="none" x="80" y="1656" width="417.63037109375" height="100"/></g><g transform="translate(-22,-14) scale(1,1)"><path fill="none" stroke="#000000" d="M 80 1656 L 497.63037109375 1656 L 497.63037109375 1756 L 80 1756 L 80 1656 Z Z" stroke-miterlimit="10"/></g><g transform="translate(-22,-14) scale(1,1)"><path fill="none" stroke="#000000" d="M 80 1681 L 497.63037109375 1681" stroke-miterlimit="10"/></g><g transform="translate(-22,-14) scale(1,1)"><path fill="none" stroke="#000000" d="M 80 1704 L 497.63037109375 1704" stroke-miterlimit="10"/></g><g transform="translate(-22,-14) scale(1,1)"><g><path fill="none" stroke="none"/><text fill="#000000" stroke="none" font-family="Arial" font-size="13px" font-style="normal" font-weight="bold" text-decoration="none" x="204.645263671875" y="1675.5">SpatialFittingAbstractDirector</text></g></g><g transform="translate(-22,-14) scale(1,1)"><g><path fill="none" stroke="none"/><text fill="#000000" stroke="none" font-family="Arial" font-size="13px" font-style="normal" font-weight="normal" text-decoration="none" x="85" y="1698.5">+builder: SpatialFittingAbstractPipelineBuilder = null</text></g></g><g transform="translate(-22,-14) scale(1,1)"><g><path fill="none" stroke="none"/><text fill="#000000" stroke="none" font-family="Arial" font-size="13px" font-style="italic" font-weight="normal" text-decoration="none" x="85" y="1721.5">«virtual bool»+Builder()</text></g></g><g transform="translate(-22,-14) scale(1,1)"><g><path fill="none" stroke="none"/><text fill="#000000" stroke="none" font-family="Arial" font-size="13px" font-style="normal" font-weight="normal" text-decoration="none" x="85" y="1736.5">«virtual void»+SetBuilder(builder: SpatialFittingAbstractPipelineBuilder)</text></g></g><g transform="translate(-22,-14) scale(1,1)"><g><path fill="none" stroke="none"/><text fill="#000000" stroke="none" font-family="Arial" font-size="13px" font-style="normal" font-weight="normal" text-decoration="none" x="85" y="1751.5">«virtual SpatialFittingAbstractPipelineBuilder»+GetBuilder()</text></g></g><g transform="translate(-22,-14) scale(1,1)"><rect fill="#C0C0C0" stroke="none" x="239" y="1383" width="120" height="37" opacity="0.2"/></g><g transform="translate(-22,-14) scale(1,1)"><rect fill="#ffffff" stroke="none" x="232" y="1376" width="120" height="37"/></g><g transform="translate(-22,-14) scale(1,1)"><path fill="none" stroke="#000000" d="M 232 1376 L 352 1376 L 352 1413 L 232 1413 L 232 1376 Z Z" stroke-miterlimit="10"/></g><g transform="translate(-22,-14) scale(1,1)"><rect fill="#ffffff" stroke="none" x="232" y="1376" width="120" height="37"/></g><g transform="translate(-22,-14) scale(1,1)"><path fill="none" stroke="#000000" d="M 232 1376 L 352 1376 L 352 1413 L 232 1413 L 232 1376 Z Z" stroke-miterlimit="10"/></g><g transform="translate(-22,-14) scale(1,1)"><g><path fill="none" stroke="none"/><text fill="#000000" stroke="none" font-family="Arial" font-size="13px" font-style="normal" font-weight="normal" text-decoration="none" x="278.27001953125" y="1393.5">«itk»</text></g></g><g transform="translate(-22,-14) scale(1,1)"><g><path fill="none" stroke="none"/><text fill="#000000" stroke="none" font-family="Arial" font-size="13px" font-style="normal" font-weight="bold" text-decoration="none" x="273.214111328125" y="1408.5">Object</text><path fill="none" stroke="#000000" d="M 312.226806640625 1408.5 L 271.773193359375 1408.5" stroke-miterlimit="10"/></g></g><g transform="translate(-22,-14) scale(1,1)"><path fill="none" stroke="#000000" d="M 289 1655 L 292 1414" stroke-miterlimit="10" stroke-dasharray="3"/></g><g transform="translate(-22,-14) scale(1,1)"><path fill="none" stroke="#000000" d="M 296.0826951231678 1424.2142841418897 L 292 1414 L 287.6643118254127 1424.1094909888056" stroke-miterlimit="10"/></g><g transform="translate(-22,-14) scale(1,1)"><rect fill="#C0C0C0" stroke="none" x="1343" y="1359" width="320.81591796875" height="88" opacity="0.2"/></g><g transform="translate(-22,-14) scale(1,1)"><rect fill="#ffffff" stroke="none" x="1336" y="1352" width="320.81591796875" height="88"/></g><g transform="translate(-22,-14) scale(1,1)"><path fill="none" stroke="#000000" d="M 1336 1352 L 1656.81591796875 1352 L 1656.81591796875 1440 L 1336 1440 L 1336 1352 Z Z" stroke-miterlimit="10"/></g><g transform="translate(-22,-14) scale(1,1)"><path fill="none" stroke="#000000" d="M 1336 1377 L 1656.81591796875 1377" stroke-miterlimit="10"/></g><g transform="translate(-22,-14) scale(1,1)"><path fill="none" stroke="#000000" d="M 1336 1387 L 1656.81591796875 1387" stroke-miterlimit="10"/></g><g transform="translate(-22,-14) scale(1,1)"><g><path fill="none" stroke="none"/><text fill="#000000" stroke="none" font-family="Arial" font-size="13px" font-style="normal" font-weight="bold" text-decoration="none" x="1391.63037109375" y="1371.5">SpatialFittingAbstractPipelineBuilder</text></g></g><g transform="translate(-22,-14) scale(1,1)"><g><path fill="none" stroke="none"/><text fill="#000000" stroke="none" font-family="Arial" font-size="13px" font-style="italic" font-weight="normal" text-decoration="none" x="1341" y="1404.5">«void»+Reset()</text></g></g><g transform="translate(-22,-14) scale(1,1)"><g><path fill="none" stroke="none"/><text fill="#000000" stroke="none" font-family="Arial" font-size="13px" font-style="italic" font-weight="normal" text-decoration="none" x="1341" y="1419.5">«SpatialFittingPipelineManager::Pointer»+GetOutput()</text></g></g><g transform="translate(-22,-14) scale(1,1)"><path fill="none" stroke="#000000" d="M 1335 1396 L 353 1394" stroke-miterlimit="10" stroke-dasharray="3"/></g><g transform="translate(-22,-14) scale(1,1)"><path fill="none" stroke="#000000" d="M 363.1712271185237 1389.8111888436683 L 353 1394 L 363.1540804422486 1398.2302068947447" stroke-miterlimit="10"/></g><g transform="translate(-22,-14) scale(1,1)"><rect fill="#C0C0C0" stroke="none" x="1151" y="1943" width="708.1689453125" height="130" opacity="0.2"/></g><g transform="translate(-22,-14) scale(1,1)"><rect fill="#ffffff" stroke="none" x="1144" y="1936" width="708.1689453125" height="130"/></g><g transform="translate(-22,-14) scale(1,1)"><path fill="none" stroke="#000000" d="M 1144 1936 L 1852.1689453125 1936 L 1852.1689453125 2066 L 1144 2066 L 1144 1936 Z Z" stroke-miterlimit="10"/></g><g transform="translate(-22,-14) scale(1,1)"><path fill="none" stroke="#000000" d="M 1144 1961 L 1852.1689453125 1961" stroke-miterlimit="10"/></g><g transform="translate(-22,-14) scale(1,1)"><path fill="none" stroke="#000000" d="M 1144 1984 L 1852.1689453125 1984" stroke-miterlimit="10"/></g><g transform="translate(-22,-14) scale(1,1)"><g><path fill="none" stroke="none"/><text fill="#000000" stroke="none" font-family="Arial" font-size="13px" font-style="normal" font-weight="bold" text-decoration="none" x="1417.148681640625" y="1955.5">SpatialFittingPipelineBuilder</text></g></g><g transform="translate(-22,-14) scale(1,1)"><g><path fill="none" stroke="none"/><text fill="#000000" stroke="none" font-family="Arial" font-size="13px" font-style="normal" font-weight="normal" text-decoration="none" x="1149" y="1978.5">-navigationDataStreamManager: SpatialFittingRoboticsRegisterDirector</text></g></g><g transform="translate(-22,-14) scale(1,1)"><g><path fill="none" stroke="none"/><text fill="#000000" stroke="none" font-family="Arial" font-size="13px" font-style="normal" font-weight="normal" text-decoration="none" x="1149" y="2001.5">«SpatialFittingPipelineManager::Pointer»+GetOutput()</text></g></g><g transform="translate(-22,-14) scale(1,1)"><g><path fill="none" stroke="none"/><text fill="#000000" stroke="none" font-family="Arial" font-size="13px" font-style="normal" font-weight="normal" text-decoration="none" x="1149" y="2016.5">«void»+BuilderNavigationToolToNavigationToolFilter(index: int, UCSTool: mitk::NavigationData::Pointer)</text></g></g><g transform="translate(-22,-14) scale(1,1)"><g><path fill="none" stroke="none"/><text fill="#000000" stroke="none" font-family="Arial" font-size="13px" font-style="normal" font-weight="normal" text-decoration="none" x="1149" y="2031.5">«void»+BuilderNavigationToolToSpaceFilter(index: int, convert: itk::SmartPointer&lt;vtkMatrix4x4&gt;)</text></g></g><g transform="translate(-22,-14) scale(1,1)"><g><path fill="none" stroke="none"/><text fill="#000000" stroke="none" font-family="Arial" font-size="13px" font-style="normal" font-weight="normal" text-decoration="none" x="1149" y="2046.5">«void»+BuilderNavigationToolCollector(index: int, number: unsigned int, interval: long = 20, accuracyRange: double = 0.5)</text></g></g><g transform="translate(-22,-14) scale(1,1)"><g><path fill="none" stroke="none"/><text fill="#000000" stroke="none" font-family="Arial" font-size="13px" font-style="normal" font-weight="normal" text-decoration="none" x="1149" y="2061.5">«void»+Reset() {type="override"}</text></g></g><g transform="translate(-22,-14) scale(1,1)"><path fill="none" stroke="#000000" d="M 1498 1935 L 1496 1441" stroke-miterlimit="10" stroke-dasharray="3"/></g><g transform="translate(-22,-14) scale(1,1)"><path fill="none" stroke="#000000" d="M 1500.2506273527126 1451.1455491279858 L 1496 1441 L 1491.8316608381401 1451.17963401266" stroke-miterlimit="10"/></g><g transform="translate(-22,-14) scale(1,1)"><rect fill="#C0C0C0" stroke="none" x="111" y="1967" width="369.927734375" height="115" opacity="0.2"/></g><g transform="translate(-22,-14) scale(1,1)"><rect fill="#ffffff" stroke="none" x="104" y="1960" width="369.927734375" height="115"/></g><g transform="translate(-22,-14) scale(1,1)"><path fill="none" stroke="#000000" d="M 104 1960 L 473.927734375 1960 L 473.927734375 2075 L 104 2075 L 104 1960 Z Z" stroke-miterlimit="10"/></g><g transform="translate(-22,-14) scale(1,1)"><path fill="none" stroke="#000000" d="M 104 1985 L 473.927734375 1985" stroke-miterlimit="10"/></g><g transform="translate(-22,-14) scale(1,1)"><path fill="none" stroke="#000000" d="M 104 2008 L 473.927734375 2008" stroke-miterlimit="10"/></g><g transform="translate(-22,-14) scale(1,1)"><g><path fill="none" stroke="none"/><text fill="#000000" stroke="none" font-family="Arial" font-size="13px" font-style="normal" font-weight="bold" text-decoration="none" x="179.14306640625" y="1979.5">SpatialFittingRoboticsRegisterDirector</text></g></g><g transform="translate(-22,-14) scale(1,1)"><g><path fill="none" stroke="none"/><text fill="#000000" stroke="none" font-family="Arial" font-size="13px" font-style="normal" font-weight="normal" text-decoration="none" x="109" y="2002.5">+builder: SpatialFittingAbstractPipelineBuilder = null</text></g></g><g transform="translate(-22,-14) scale(1,1)"><g><path fill="none" stroke="none"/><text fill="#000000" stroke="none" font-family="Arial" font-size="13px" font-style="normal" font-weight="normal" text-decoration="none" x="109" y="2025.5">+SetBuilder(builder: SpatialFittingAbstractPipelineBuilder)</text></g></g><g transform="translate(-22,-14) scale(1,1)"><g><path fill="none" stroke="none"/><text fill="#000000" stroke="none" font-family="Arial" font-size="13px" font-style="normal" font-weight="normal" text-decoration="none" x="109" y="2040.5">«SpatialFittingAbstractPipelineBuilder»+GetBuilder()</text></g></g><g transform="translate(-22,-14) scale(1,1)"><g><path fill="none" stroke="none"/><text fill="#000000" stroke="none" font-family="Arial" font-size="13px" font-style="normal" font-weight="normal" text-decoration="none" x="109" y="2055.5">«bool»+Builder() {type="override"}</text></g></g><g transform="translate(-22,-14) scale(1,1)"><path fill="none" stroke="#000000" d="M 288 1959 L 288 1757" stroke-miterlimit="10" stroke-dasharray="3"/></g><g transform="translate(-22,-14) scale(1,1)"><path fill="none" stroke="#000000" d="M 292.209517756016 1767.162674857624 L 288 1757 L 283.790482243984 1767.162674857624" stroke-miterlimit="10"/></g><g transform="translate(-22,-14) scale(1,1)"><path fill="none" stroke="#000000" d="M 475 2015 L 1143 2006" stroke-miterlimit="10"/></g><g transform="translate(-22,-14) scale(1,1)"><path fill="#000000" stroke="none" d="M 1132.894957310093 2010.3460455859506 L 1143 2006 L 1132.7815374846157 2001.927774094959 L 1121.001996483191 2006.296380286903"/></g><g transform="translate(-22,-14) scale(1,1)"><path fill="none" stroke="#000000" d="M 1132.894957310093 2010.3460455859506 L 1143 2006 L 1132.7815374846157 2001.927774094959 L 1121.001996483191 2006.296380286903 L 1132.894957310093 2010.3460455859506" stroke-miterlimit="10"/></g><g transform="translate(-22,-14) scale(1,1)"><rect fill="#C0C0C0" stroke="none" x="671" y="1607" width="609.7802734375" height="205" opacity="0.2"/></g><g transform="translate(-22,-14) scale(1,1)"><rect fill="#ffffff" stroke="none" x="664" y="1600" width="609.7802734375" height="205"/></g><g transform="translate(-22,-14) scale(1,1)"><path fill="none" stroke="#000000" d="M 664 1600 L 1273.7802734375 1600 L 1273.7802734375 1805 L 664 1805 L 664 1600 Z Z" stroke-miterlimit="10"/></g><g transform="translate(-22,-14) scale(1,1)"><path fill="none" stroke="#000000" d="M 664 1625 L 1273.7802734375 1625" stroke-miterlimit="10"/></g><g transform="translate(-22,-14) scale(1,1)"><path fill="none" stroke="#000000" d="M 664 1648 L 1273.7802734375 1648" stroke-miterlimit="10"/></g><g transform="translate(-22,-14) scale(1,1)"><g><path fill="none" stroke="none"/><text fill="#000000" stroke="none" font-family="Arial" font-size="13px" font-style="normal" font-weight="bold" text-decoration="none" x="882.533447265625" y="1619.5">SpatialFittingPipelineManager</text></g></g><g transform="translate(-22,-14) scale(1,1)"><g><path fill="none" stroke="none"/><text fill="#000000" stroke="none" font-family="Arial" font-size="13px" font-style="normal" font-weight="normal" text-decoration="none" x="669" y="1642.5">-filterManager: filter:mitk::NavigationDataToNavigationDataFilter</text></g></g><g transform="translate(-22,-14) scale(1,1)"><g><path fill="none" stroke="none"/><text fill="#000000" stroke="none" font-family="Arial" font-size="13px" font-style="normal" font-weight="normal" text-decoration="none" x="669" y="1665.5">«bool»+AddFilter(index: int, filter: mitk::NavigationDataToNavigationDataFilter::Pointer)</text></g></g><g transform="translate(-22,-14) scale(1,1)"><g><path fill="none" stroke="none"/><text fill="#000000" stroke="none" font-family="Arial" font-size="13px" font-style="normal" font-weight="normal" text-decoration="none" x="669" y="1680.5">«bool»+AddFilter(filter: mitk::NavigationDataToNavigationDataFilter::Pointer)</text></g></g><g transform="translate(-22,-14) scale(1,1)"><g><path fill="none" stroke="none"/><text fill="#000000" stroke="none" font-family="Arial" font-size="13px" font-style="normal" font-weight="normal" text-decoration="none" x="669" y="1695.5">«bool»+RemoveFilter(index: int)</text></g></g><g transform="translate(-22,-14) scale(1,1)"><g><path fill="none" stroke="none"/><text fill="#000000" stroke="none" font-family="Arial" font-size="13px" font-style="normal" font-weight="normal" text-decoration="none" x="669" y="1710.5">«bool»+RemoveFilter(name: const std::string&amp;)</text></g></g><g transform="translate(-22,-14) scale(1,1)"><g><path fill="none" stroke="none"/><text fill="#000000" stroke="none" font-family="Arial" font-size="13px" font-style="normal" font-weight="normal" text-decoration="none" x="669" y="1725.5">«bool»+ModifyFilter(index: int, filter: mitk::NavigationDataToNavigationDataFilter::Pointer)</text></g></g><g transform="translate(-22,-14) scale(1,1)"><g><path fill="none" stroke="none"/><text fill="#000000" stroke="none" font-family="Arial" font-size="13px" font-style="normal" font-weight="normal" text-decoration="none" x="669" y="1740.5">«bool»+ModifyFilter(name: const std::string&amp;, filter: mitk::NavigationDataToNavigationDataFilter::Pointer)</text></g></g><g transform="translate(-22,-14) scale(1,1)"><g><path fill="none" stroke="none"/><text fill="#000000" stroke="none" font-family="Arial" font-size="13px" font-style="normal" font-weight="normal" text-decoration="none" x="669" y="1755.5">«mitk::NavigationDataToNavigationDataFilter::Pointer»+FindFilter(index: int)</text></g></g><g transform="translate(-22,-14) scale(1,1)"><g><path fill="none" stroke="none"/><text fill="#000000" stroke="none" font-family="Arial" font-size="13px" font-style="normal" font-weight="normal" text-decoration="none" x="669" y="1770.5">«mitk::NavigationDataToNavigationDataFilter::Pointer»+FindFilter(name: const std::string&amp;)</text></g></g><g transform="translate(-22,-14) scale(1,1)"><g><path fill="none" stroke="none"/><text fill="#000000" stroke="none" font-family="Arial" font-size="13px" font-style="normal" font-weight="normal" text-decoration="none" x="669" y="1785.5">«int»+GetIndexByName(name: const std::string&amp;)</text></g></g><g transform="translate(-22,-14) scale(1,1)"><g><path fill="none" stroke="none"/><text fill="#000000" stroke="none" font-family="Arial" font-size="13px" font-style="normal" font-weight="normal" text-decoration="none" x="669" y="1800.5">«void»#GenerateData() {type="override"}</text></g></g><g transform="translate(-22,-14) scale(1,1)"><path fill="none" stroke="#000000" d="M 499 1705 L 663 1704" stroke-miterlimit="10"/></g><g transform="translate(-22,-14) scale(1,1)"><path fill="#000000" stroke="none" d="M 652.863181376544 1708.2714058804047 L 663 1704 L 652.8118467484619 1699.8525268749306 L 641.0004089713442 1704.1341438477357"/></g><g transform="translate(-22,-14) scale(1,1)"><path fill="none" stroke="#000000" d="M 652.863181376544 1708.2714058804047 L 663 1704 L 652.8118467484619 1699.8525268749306 L 641.0004089713442 1704.1341438477357 L 652.863181376544 1708.2714058804047" stroke-miterlimit="10"/></g><g transform="translate(-22,-14) scale(1,1)"><path fill="none" stroke="#000000" d="M 1418 1441 L 1146 1599" stroke-miterlimit="10"/></g><g transform="translate(-22,-14) scale(1,1)"><path fill="#000000" stroke="none" d="M 1152.67326960814 1590.255431815288 L 1146 1599 L 1156.9020576545597 1597.5353707306438 L 1165.0233971467323 1587.9496443044716"/></g><g transform="translate(-22,-14) scale(1,1)"><path fill="none" stroke="#000000" d="M 1152.67326960814 1590.255431815288 L 1146 1599 L 1156.9020576545597 1597.5353707306438 L 1165.0233971467323 1587.9496443044716 L 1152.67326960814 1590.255431815288" stroke-miterlimit="10"/></g><g transform="translate(-22,-14) scale(1,1)"><rect fill="#C0C0C0" stroke="none" x="847" y="1431" width="244.96142578125" height="37" opacity="0.2"/></g><g transform="translate(-22,-14) scale(1,1)"><rect fill="#ffffff" stroke="none" x="840" y="1424" width="244.96142578125" height="37"/></g><g transform="translate(-22,-14) scale(1,1)"><path fill="none" stroke="#000000" d="M 840 1424 L 1084.96142578125 1424 L 1084.96142578125 1461 L 840 1461 L 840 1424 Z Z" stroke-miterlimit="10"/></g><g transform="translate(-22,-14) scale(1,1)"><rect fill="#ffffff" stroke="none" x="840" y="1424" width="244.96142578125" height="37"/></g><g transform="translate(-22,-14) scale(1,1)"><path fill="none" stroke="#000000" d="M 840 1424 L 1084.96142578125 1424 L 1084.96142578125 1461 L 840 1461 L 840 1424 Z Z" stroke-miterlimit="10"/></g><g transform="translate(-22,-14) scale(1,1)"><g><path fill="none" stroke="none"/><text fill="#000000" stroke="none" font-family="Arial" font-size="13px" font-style="normal" font-weight="normal" text-decoration="none" x="943.336181640625" y="1441.5">«mitk»</text></g></g><g transform="translate(-22,-14) scale(1,1)"><g><path fill="none" stroke="none"/><text fill="#000000" stroke="none" font-family="Arial" font-size="13px" font-style="normal" font-weight="bold" text-decoration="none" x="852.285400390625" y="1456.5">NavigationDataToNavigationDataFilter</text><path fill="none" stroke="#000000" d="M 1080.46142578125 1456.5 L 844.5 1456.5" stroke-miterlimit="10"/></g></g><g transform="translate(-22,-14) scale(1,1)"><path fill="none" stroke="#000000" d="M 966 1599 L 962 1462" stroke-miterlimit="10" stroke-dasharray="3"/></g><g transform="translate(-22,-14) scale(1,1)"><path fill="none" stroke="#000000" d="M 966.5043187016541 1472.0354926652321 L 962 1462 L 958.0888693824314 1472.2811992146985" stroke-miterlimit="10"/></g></g></svg>