<svg version="1.1" xmlns="http://www.w3.org/2000/svg" xmlns:xlink="http://www.w3.org/1999/xlink" width="410.81787109375" height="325"><defs/><g><g transform="translate(-558,-54) scale(1,1)"><rect fill="#C0C0C0" stroke="none" x="575" y="263" width="390.81787109375" height="113" opacity="0.2"/></g><g transform="translate(-558,-54) scale(1,1)"><rect fill="#ffffff" stroke="none" x="568" y="256" width="390.81787109375" height="113"/></g><g transform="translate(-558,-54) scale(1,1)"><path fill="none" stroke="#000000" d="M 568 256 L 958.81787109375 256 L 958.81787109375 369 L 568 369 L 568 256 Z Z" stroke-miterlimit="10"/></g><g transform="translate(-558,-54) scale(1,1)"><path fill="none" stroke="#000000" d="M 568 294 L 958.81787109375 294" stroke-miterlimit="10"/></g><g transform="translate(-558,-54) scale(1,1)"><path fill="none" stroke="#000000" d="M 568 317 L 958.81787109375 317" stroke-miterlimit="10"/></g><g transform="translate(-558,-54) scale(1,1)"><g><path fill="none" stroke="none"/><text fill="#000000" stroke="none" font-family="Arial" font-size="13px" font-style="normal" font-weight="normal" text-decoration="none" x="716.43310546875" y="273.5">«lancet::spatial»</text></g></g><g transform="translate(-558,-54) scale(1,1)"><g><path fill="none" stroke="none"/><text fill="#000000" stroke="none" font-family="Arial" font-size="13px" font-style="normal" font-weight="bold" text-decoration="none" x="643.457275390625" y="288.5">SpatialFittingNavigationToolToSpaceFilter</text></g></g><g transform="translate(-558,-54) scale(1,1)"><g><path fill="none" stroke="none"/><text fill="#000000" stroke="none" font-family="Arial" font-size="13px" font-style="normal" font-weight="normal" text-decoration="none" x="573" y="311.5">-convertMatrix: itk::SmartPointer&lt;vtkMatrix4x4&gt;</text></g></g><g transform="translate(-558,-54) scale(1,1)"><g><path fill="none" stroke="none"/><text fill="#000000" stroke="none" font-family="Arial" font-size="13px" font-style="normal" font-weight="normal" text-decoration="none" x="573" y="334.5">«itk::SmartPointer&lt;vtkMatrix4x4&gt;»+GetConvertMatrix()</text></g></g><g transform="translate(-558,-54) scale(1,1)"><g><path fill="none" stroke="none"/><text fill="#000000" stroke="none" font-family="Arial" font-size="13px" font-style="normal" font-weight="normal" text-decoration="none" x="573" y="349.5">«void»+SetConvertMatrix(matrix: itk::SmartPointer&lt;vtkMatrix4x4&gt;)</text></g></g><g transform="translate(-558,-54) scale(1,1)"><g><path fill="none" stroke="none"/><text fill="#000000" stroke="none" font-family="Arial" font-size="13px" font-style="normal" font-weight="normal" text-decoration="none" x="573" y="364.5">«virtual void»#GenerateData() {type="override"}</text></g></g><g transform="translate(-558,-54) scale(1,1)"><rect fill="#C0C0C0" stroke="none" x="647" y="71" width="244.96142578125" height="37" opacity="0.2"/></g><g transform="translate(-558,-54) scale(1,1)"><rect fill="#ffffff" stroke="none" x="640" y="64" width="244.96142578125" height="37"/></g><g transform="translate(-558,-54) scale(1,1)"><path fill="none" stroke="#000000" d="M 640 64 L 884.96142578125 64 L 884.96142578125 101 L 640 101 L 640 64 Z Z" stroke-miterlimit="10"/></g><g transform="translate(-558,-54) scale(1,1)"><rect fill="#ffffff" stroke="none" x="640" y="64" width="244.96142578125" height="37"/></g><g transform="translate(-558,-54) scale(1,1)"><path fill="none" stroke="#000000" d="M 640 64 L 884.96142578125 64 L 884.96142578125 101 L 640 101 L 640 64 Z Z" stroke-miterlimit="10"/></g><g transform="translate(-558,-54) scale(1,1)"><g><path fill="none" stroke="none"/><text fill="#000000" stroke="none" font-family="Arial" font-size="13px" font-style="normal" font-weight="normal" text-decoration="none" x="743.336181640625" y="81.5">«mitk»</text></g></g><g transform="translate(-558,-54) scale(1,1)"><g><path fill="none" stroke="none"/><text fill="#000000" stroke="none" font-family="Arial" font-size="13px" font-style="normal" font-weight="bold" text-decoration="none" x="652.285400390625" y="96.5">NavigationDataToNavigationDataFilter</text><path fill="none" stroke="#000000" d="M 880.46142578125 96.5 L 644.5 96.5" stroke-miterlimit="10"/></g></g><g transform="translate(-558,-54) scale(1,1)"><path fill="none" stroke="#000000" d="M 763 255 L 762 102" stroke-miterlimit="10" stroke-dasharray="3"/></g><g transform="translate(-558,-54) scale(1,1)"><path fill="none" stroke="#000000" d="M 766.2758491393079 112.1349451965899 L 762 102 L 757.8569934462724 112.18997039719797" stroke-miterlimit="10"/></g></g></svg>