<svg version="1.1" xmlns="http://www.w3.org/2000/svg" xmlns:xlink="http://www.w3.org/1999/xlink" width="340.81591796875" height="180"><defs/><g><g transform="translate(-614,-14) scale(1,1)"><rect fill="#C0C0C0" stroke="none" x="631" y="119" width="320.81591796875" height="72" opacity="0.2"/></g><g transform="translate(-614,-14) scale(1,1)"><rect fill="#ffffff" stroke="none" x="624" y="112" width="320.81591796875" height="72"/></g><g transform="translate(-614,-14) scale(1,1)"><path fill="none" stroke="#000000" d="M 624 112 L 944.81591796875 112 L 944.81591796875 184 L 624 184 L 624 112 Z Z" stroke-miterlimit="10"/></g><g transform="translate(-614,-14) scale(1,1)"><path fill="none" stroke="#000000" d="M 624 137 L 944.81591796875 137" stroke-miterlimit="10"/></g><g transform="translate(-614,-14) scale(1,1)"><path fill="none" stroke="#000000" d="M 624 147 L 944.81591796875 147" stroke-miterlimit="10"/></g><g transform="translate(-614,-14) scale(1,1)"><g><path fill="none" stroke="none"/><text fill="#000000" stroke="none" font-family="Arial" font-size="13px" font-style="normal" font-weight="bold" text-decoration="none" x="679.63037109375" y="131.5">SpatialFittingAbstractPipelineBuilder</text></g></g><g transform="translate(-614,-14) scale(1,1)"><g><path fill="none" stroke="none"/><text fill="#000000" stroke="none" font-family="Arial" font-size="13px" font-style="italic" font-weight="normal" text-decoration="none" x="629" y="164.5">«void»+Reset()</text></g></g><g transform="translate(-614,-14) scale(1,1)"><g><path fill="none" stroke="none"/><text fill="#000000" stroke="none" font-family="Arial" font-size="13px" font-style="italic" font-weight="normal" text-decoration="none" x="629" y="179.5">«SpatialFittingPipelineManager::Pointer»+GetOutput()</text></g></g><g transform="translate(-614,-14) scale(1,1)"><rect fill="#C0C0C0" stroke="none" x="751" y="31" width="88" height="37" opacity="0.2"/></g><g transform="translate(-614,-14) scale(1,1)"><rect fill="#ffffff" stroke="none" x="744" y="24" width="88" height="37"/></g><g transform="translate(-614,-14) scale(1,1)"><path fill="none" stroke="#000000" d="M 744 24 L 832 24 L 832 61 L 744 61 L 744 24 Z Z" stroke-miterlimit="10"/></g><g transform="translate(-614,-14) scale(1,1)"><rect fill="#ffffff" stroke="none" x="744" y="24" width="88" height="37"/></g><g transform="translate(-614,-14) scale(1,1)"><path fill="none" stroke="#000000" d="M 744 24 L 832 24 L 832 61 L 744 61 L 744 24 Z Z" stroke-miterlimit="10"/></g><g transform="translate(-614,-14) scale(1,1)"><g><path fill="none" stroke="none"/><text fill="#000000" stroke="none" font-family="Arial" font-size="13px" font-style="normal" font-weight="normal" text-decoration="none" x="774.27001953125" y="41.5">«itk»</text></g></g><g transform="translate(-614,-14) scale(1,1)"><g><path fill="none" stroke="none"/><text fill="#000000" stroke="none" font-family="Arial" font-size="13px" font-style="normal" font-weight="bold" text-decoration="none" x="769.214111328125" y="56.5">Object</text><path fill="none" stroke="#000000" d="M 808.226806640625 56.5 L 767.773193359375 56.5" stroke-miterlimit="10"/></g></g><g transform="translate(-614,-14) scale(1,1)"><path fill="none" stroke="#000000" d="M 785 111 L 787 62" stroke-miterlimit="10" stroke-dasharray="3"/></g><g transform="translate(-614,-14) scale(1,1)"><path fill="none" stroke="#000000" d="M 790.7915576994734 72.32589416038941 L 787 62 L 782.3795263779318 71.98254594318362" stroke-miterlimit="10"/></g></g></svg>