<svg version="1.1" xmlns="http://www.w3.org/2000/svg" xmlns:xlink="http://www.w3.org/1999/xlink" width="437.63037109375" height="248"><defs/><g><g transform="translate(-470,-6) scale(1,1)"><rect fill="#C0C0C0" stroke="none" x="487" y="151" width="417.63037109375" height="100" opacity="0.2"/></g><g transform="translate(-470,-6) scale(1,1)"><rect fill="#ffffff" stroke="none" x="480" y="144" width="417.63037109375" height="100"/></g><g transform="translate(-470,-6) scale(1,1)"><path fill="none" stroke="#000000" d="M 480 144 L 897.63037109375 144 L 897.63037109375 244 L 480 244 L 480 144 Z Z" stroke-miterlimit="10"/></g><g transform="translate(-470,-6) scale(1,1)"><path fill="none" stroke="#000000" d="M 480 169 L 897.63037109375 169" stroke-miterlimit="10"/></g><g transform="translate(-470,-6) scale(1,1)"><path fill="none" stroke="#000000" d="M 480 192 L 897.63037109375 192" stroke-miterlimit="10"/></g><g transform="translate(-470,-6) scale(1,1)"><g><path fill="none" stroke="none"/><text fill="#000000" stroke="none" font-family="Arial" font-size="13px" font-style="normal" font-weight="bold" text-decoration="none" x="604.645263671875" y="163.5">SpatialFittingAbstractDirector</text></g></g><g transform="translate(-470,-6) scale(1,1)"><g><path fill="none" stroke="none"/><text fill="#000000" stroke="none" font-family="Arial" font-size="13px" font-style="normal" font-weight="normal" text-decoration="none" x="485" y="186.5">+builder: SpatialFittingAbstractPipelineBuilder = null</text></g></g><g transform="translate(-470,-6) scale(1,1)"><g><path fill="none" stroke="none"/><text fill="#000000" stroke="none" font-family="Arial" font-size="13px" font-style="italic" font-weight="normal" text-decoration="none" x="485" y="209.5">«virtual bool»+Builder()</text></g></g><g transform="translate(-470,-6) scale(1,1)"><g><path fill="none" stroke="none"/><text fill="#000000" stroke="none" font-family="Arial" font-size="13px" font-style="normal" font-weight="normal" text-decoration="none" x="485" y="224.5">«virtual void»+SetBuilder(builder: SpatialFittingAbstractPipelineBuilder)</text></g></g><g transform="translate(-470,-6) scale(1,1)"><g><path fill="none" stroke="none"/><text fill="#000000" stroke="none" font-family="Arial" font-size="13px" font-style="normal" font-weight="normal" text-decoration="none" x="485" y="239.5">«virtual SpatialFittingAbstractPipelineBuilder»+GetBuilder()</text></g></g><g transform="translate(-470,-6) scale(1,1)"><rect fill="#C0C0C0" stroke="none" x="631" y="23" width="120" height="37" opacity="0.2"/></g><g transform="translate(-470,-6) scale(1,1)"><rect fill="#ffffff" stroke="none" x="624" y="16" width="120" height="37"/></g><g transform="translate(-470,-6) scale(1,1)"><path fill="none" stroke="#000000" d="M 624 16 L 744 16 L 744 53 L 624 53 L 624 16 Z Z" stroke-miterlimit="10"/></g><g transform="translate(-470,-6) scale(1,1)"><rect fill="#ffffff" stroke="none" x="624" y="16" width="120" height="37"/></g><g transform="translate(-470,-6) scale(1,1)"><path fill="none" stroke="#000000" d="M 624 16 L 744 16 L 744 53 L 624 53 L 624 16 Z Z" stroke-miterlimit="10"/></g><g transform="translate(-470,-6) scale(1,1)"><g><path fill="none" stroke="none"/><text fill="#000000" stroke="none" font-family="Arial" font-size="13px" font-style="normal" font-weight="normal" text-decoration="none" x="670.27001953125" y="33.5">«itk»</text></g></g><g transform="translate(-470,-6) scale(1,1)"><g><path fill="none" stroke="none"/><text fill="#000000" stroke="none" font-family="Arial" font-size="13px" font-style="normal" font-weight="bold" text-decoration="none" x="665.214111328125" y="48.5">Object</text><path fill="none" stroke="#000000" d="M 704.226806640625 48.5 L 663.773193359375 48.5" stroke-miterlimit="10"/></g></g><g transform="translate(-470,-6) scale(1,1)"><path fill="none" stroke="#000000" d="M 687 143 L 685 54" stroke-miterlimit="10" stroke-dasharray="3"/></g><g transform="translate(-470,-6) scale(1,1)"><path fill="none" stroke="#000000" d="M 689.4367723576969 64.06553779218858 L 685 54 L 681.0198617915624 64.25468184985452" stroke-miterlimit="10"/></g></g></svg>