<svg version="1.1" xmlns="http://www.w3.org/2000/svg" xmlns:xlink="http://www.w3.org/1999/xlink" width="1108" height="500"><defs/><g><g transform="translate(-102,-102) scale(1,1)"><path fill="#C0C0C0" stroke="none" d="M 129 271 L 237 271 Q 247 271 247 281 L 247 316 Q 247 326 237 326 L 129 326 Q 119 326 119 316 L 119 281 Q 119 271 129 271 Z" opacity="0.2"/></g><g transform="translate(-102,-102) scale(1,1)"><path fill="#ffffff" stroke="none" d="M 122 264 L 230 264 Q 240 264 240 274 L 240 309 Q 240 319 230 319 L 122 319 Q 112 319 112 309 L 112 274 Q 112 264 122 264 Z"/></g><g transform="translate(-102,-102) scale(1,1)"><path fill="none" stroke="#000000" d="M 122 264 L 230 264 Q 240 264 240 274 L 240 309 Q 240 319 230 319 L 122 319 Q 112 319 112 309 L 112 274 Q 112 264 122 264 Z" stroke-miterlimit="10"/></g><g transform="translate(-102,-102) scale(1,1)"><path fill="none" stroke="#000000" d="M 112 287 L 240 287" stroke-miterlimit="10"/></g><g transform="translate(-102,-102) scale(1,1)"><g><path fill="none" stroke="none"/><text fill="#000000" stroke="none" font-family="Arial" font-size="13px" font-style="normal" font-weight="normal" text-decoration="none" x="163" y="308.5">开始</text></g></g><g transform="translate(-102,-102) scale(1,1)"><g><path fill="none" stroke="none"/><text fill="#000000" stroke="none" font-family="Arial" font-size="13px" font-style="normal" font-weight="normal" text-decoration="none" x="176" y="281.5"></text></g></g><g transform="translate(-102,-102) scale(1,1)"><rect fill="#C0C0C0" stroke="none" x="327" y="119" width="288" height="32" opacity="0.2"/></g><g transform="translate(-102,-102) scale(1,1)"><rect fill="#ffffff" stroke="none" x="320" y="112" width="288" height="32"/></g><g transform="translate(-102,-102) scale(1,1)"><path fill="none" stroke="#000000" d="M 320 112 L 320 144" stroke-miterlimit="10"/></g><g transform="translate(-102,-102) scale(1,1)"><path fill="none" stroke="#000000" d="M 320 112 L 608 112" stroke-miterlimit="10"/></g><g transform="translate(-102,-102) scale(1,1)"><path fill="none" stroke="#000000" d="M 320 144 L 608 144" stroke-miterlimit="10"/></g><g transform="translate(-102,-102) scale(1,1)"><path fill="none" stroke="#000000" d="M 352.38818359375 112 L 352.38818359375 144" stroke-miterlimit="10"/></g><g transform="translate(-102,-102) scale(1,1)"><g><path fill="none" stroke="none"/><text fill="#000000" stroke="none" font-family="Arial" font-size="13px" font-style="normal" font-weight="normal" text-decoration="none" x="375.31494140625" y="134.5">mitk::TrackingDeviceSource::Pointer</text></g></g><g transform="translate(-102,-102) scale(1,1)"><g><path fill="none" stroke="none"/><text fill="#000000" stroke="none" font-family="Arial" font-size="13px" font-style="normal" font-weight="normal" text-decoration="none" x="324.5" y="134.5">NDI</text></g></g><g transform="translate(-102,-102) scale(1,1)"><rect fill="#C0C0C0" stroke="none" x="335" y="271" width="216" height="56" opacity="0.2"/></g><g transform="translate(-102,-102) scale(1,1)"><rect fill="#ffffff" stroke="none" x="328" y="264" width="216" height="56"/></g><g transform="translate(-102,-102) scale(1,1)"><path fill="none" stroke="#000000" d="M 328 264 L 544 264 L 544 320 L 328 320 L 328 264 Z Z" stroke-miterlimit="10"/></g><g transform="translate(-102,-102) scale(1,1)"><g><path fill="none" stroke="none"/><text fill="#000000" stroke="none" font-family="Arial" font-size="13px" font-style="normal" font-weight="normal" text-decoration="none" x="385.805908203125" y="281.5">采集NDI注册数据</text></g></g><g transform="translate(-102,-102) scale(1,1)"><g><path fill="none" stroke="none"/><text fill="#000000" stroke="none" font-family="Arial" font-size="13px" font-style="normal" font-weight="normal" text-decoration="none" x="355.83544921875" y="299.5">导航数据过滤器-工具到工具</text></g></g><g transform="translate(-102,-102) scale(1,1)"><g><path fill="none" stroke="none"/><text fill="#000000" stroke="none" font-family="Arial" font-size="13px" font-style="normal" font-weight="normal" text-decoration="none" x="623.5" y="28.5"></text></g></g><g transform="translate(-102,-102) scale(1,1)"><path fill="none" stroke="#000000" d="M 352 144 L 352 264" stroke-miterlimit="10"/></g><g transform="translate(-102,-102) scale(1,1)"><path fill="#000000" stroke="none" d="M 347.790482243984 253.83732514237585 L 352 264 L 356.209517756016 253.83732514237585"/></g><g transform="translate(-102,-102) scale(1,1)"><path fill="none" stroke="#000000" d="M 347.790482243984 253.83732514237585 L 352 264 L 356.209517756016 253.83732514237585 L 347.790482243984 253.83732514237585" stroke-miterlimit="10"/></g><g transform="translate(-102,-102) scale(1,1)"><g><path fill="none" stroke="none"/><text fill="#000000" stroke="none" font-family="Arial" font-size="13px" font-style="normal" font-weight="normal" text-decoration="none" x="308.5" y="209.5">Input: 探针工具数据</text></g></g><g transform="translate(-102,-102) scale(1,1)"><path fill="none" stroke="#000000" d="M 536 144 L 536 264" stroke-miterlimit="10"/></g><g transform="translate(-102,-102) scale(1,1)"><path fill="#000000" stroke="none" d="M 531.790482243984 253.83732514237585 L 536 264 L 540.209517756016 253.83732514237585"/></g><g transform="translate(-102,-102) scale(1,1)"><path fill="none" stroke="#000000" d="M 531.790482243984 253.83732514237585 L 536 264 L 540.209517756016 253.83732514237585 L 531.790482243984 253.83732514237585" stroke-miterlimit="10"/></g><g transform="translate(-102,-102) scale(1,1)"><g><path fill="none" stroke="none"/><text fill="#000000" stroke="none" font-family="Arial" font-size="13px" font-style="normal" font-weight="normal" text-decoration="none" x="471.5" y="209.5">UCSTool：台车Marker工具</text></g></g><g transform="translate(-102,-102) scale(1,1)"><path fill="none" stroke="#000000" d="M 240 292 L 328 292" stroke-miterlimit="10"/></g><g transform="translate(-102,-102) scale(1,1)"><path fill="#000000" stroke="none" d="M 317.83732514237585 296.209517756016 L 328 292 L 317.83732514237585 287.790482243984"/></g><g transform="translate(-102,-102) scale(1,1)"><path fill="none" stroke="#000000" d="M 317.83732514237585 296.209517756016 L 328 292 L 317.83732514237585 287.790482243984 L 317.83732514237585 296.209517756016" stroke-miterlimit="10"/></g><g transform="translate(-102,-102) scale(1,1)"><rect fill="#C0C0C0" stroke="none" x="735" y="271" width="216" height="56" opacity="0.2"/></g><g transform="translate(-102,-102) scale(1,1)"><rect fill="#ffffff" stroke="none" x="728" y="264" width="216" height="56"/></g><g transform="translate(-102,-102) scale(1,1)"><path fill="none" stroke="#000000" d="M 728 264 L 944 264 L 944 320 L 728 320 L 728 264 Z Z" stroke-miterlimit="10"/></g><g transform="translate(-102,-102) scale(1,1)"><g><path fill="none" stroke="none"/><text fill="#000000" stroke="none" font-family="Arial" font-size="13px" font-style="normal" font-weight="normal" text-decoration="none" x="783.971435546875" y="281.5">RobotRegistration</text></g></g><g transform="translate(-102,-102) scale(1,1)"><g><path fill="none" stroke="none"/><text fill="#000000" stroke="none" font-family="Arial" font-size="13px" font-style="normal" font-weight="normal" text-decoration="none" x="777.5" y="299.5">机械臂注册算法模型</text></g></g><g transform="translate(-102,-102) scale(1,1)"><g><path fill="none" stroke="none"/><text fill="#000000" stroke="none" font-family="Arial" font-size="13px" font-style="normal" font-weight="normal" text-decoration="none" x="31.5" y="12.5"></text></g></g><g transform="translate(-102,-102) scale(1,1)"><path fill="none" stroke="#000000" d="M 544 292 L 728 292" stroke-miterlimit="10"/></g><g transform="translate(-102,-102) scale(1,1)"><path fill="#000000" stroke="none" d="M 717.8373251423759 296.209517756016 L 728 292 L 717.8373251423758 287.790482243984"/></g><g transform="translate(-102,-102) scale(1,1)"><path fill="none" stroke="#000000" d="M 717.8373251423759 296.209517756016 L 728 292 L 717.8373251423758 287.790482243984 L 717.8373251423759 296.209517756016" stroke-miterlimit="10"/></g><g transform="translate(-102,-102) scale(1,1)"><g><path fill="none" stroke="none"/><text fill="#000000" stroke="none" font-family="Arial" font-size="13px" font-style="normal" font-weight="normal" text-decoration="none" x="598.5" y="283.5">NDI注册数据</text></g></g><g transform="translate(-102,-102) scale(1,1)"><path fill="#C0C0C0" stroke="none" d="M 1081 271 L 1197 271 Q 1207 271 1207 281 L 1207 316 Q 1207 326 1197 326 L 1081 326 Q 1071 326 1071 316 L 1071 281 Q 1071 271 1081 271 Z" opacity="0.2"/></g><g transform="translate(-102,-102) scale(1,1)"><path fill="#ffffff" stroke="none" d="M 1074 264 L 1190 264 Q 1200 264 1200 274 L 1200 309 Q 1200 319 1190 319 L 1074 319 Q 1064 319 1064 309 L 1064 274 Q 1064 264 1074 264 Z"/></g><g transform="translate(-102,-102) scale(1,1)"><path fill="none" stroke="#000000" d="M 1074 264 L 1190 264 Q 1200 264 1200 274 L 1200 309 Q 1200 319 1190 319 L 1074 319 Q 1064 319 1064 309 L 1064 274 Q 1064 264 1074 264 Z" stroke-miterlimit="10"/></g><g transform="translate(-102,-102) scale(1,1)"><path fill="none" stroke="#000000" d="M 1064 287 L 1200 287" stroke-miterlimit="10"/></g><g transform="translate(-102,-102) scale(1,1)"><g><path fill="none" stroke="none"/><text fill="#000000" stroke="none" font-family="Arial" font-size="13px" font-style="normal" font-weight="normal" text-decoration="none" x="1119" y="308.5">结束</text></g></g><g transform="translate(-102,-102) scale(1,1)"><g><path fill="none" stroke="none"/><text fill="#000000" stroke="none" font-family="Arial" font-size="13px" font-style="normal" font-weight="normal" text-decoration="none" x="1132" y="281.5"></text></g></g><g transform="translate(-102,-102) scale(1,1)"><path fill="none" stroke="#000000" d="M 944 292 L 1064 292" stroke-miterlimit="10"/></g><g transform="translate(-102,-102) scale(1,1)"><path fill="#000000" stroke="none" d="M 1053.837325142376 296.209517756016 L 1064 292 L 1053.837325142376 287.790482243984"/></g><g transform="translate(-102,-102) scale(1,1)"><path fill="none" stroke="#000000" d="M 1053.837325142376 296.209517756016 L 1064 292 L 1053.837325142376 287.790482243984 L 1053.837325142376 296.209517756016" stroke-miterlimit="10"/></g><g transform="translate(-102,-102) scale(1,1)"><g><path fill="none" stroke="none"/><text fill="#000000" stroke="none" font-family="Arial" font-size="13px" font-style="normal" font-weight="normal" text-decoration="none" x="977.5" y="283.5">注册矩阵</text></g></g><g transform="translate(-102,-102) scale(1,1)"><path fill="#C0C0C0" stroke="none" d="M 129 359 L 237 359 Q 247 359 247 369 L 247 404 Q 247 414 237 414 L 129 414 Q 119 414 119 404 L 119 369 Q 119 359 129 359 Z" opacity="0.2"/></g><g transform="translate(-102,-102) scale(1,1)"><path fill="#ffffff" stroke="none" d="M 122 352 L 230 352 Q 240 352 240 362 L 240 397 Q 240 407 230 407 L 122 407 Q 112 407 112 397 L 112 362 Q 112 352 122 352 Z"/></g><g transform="translate(-102,-102) scale(1,1)"><path fill="none" stroke="#000000" d="M 122 352 L 230 352 Q 240 352 240 362 L 240 397 Q 240 407 230 407 L 122 407 Q 112 407 112 397 L 112 362 Q 112 352 122 352 Z" stroke-miterlimit="10"/></g><g transform="translate(-102,-102) scale(1,1)"><path fill="none" stroke="#000000" d="M 112 375 L 240 375" stroke-miterlimit="10"/></g><g transform="translate(-102,-102) scale(1,1)"><g><path fill="none" stroke="none"/><text fill="#000000" stroke="none" font-family="Arial" font-size="13px" font-style="normal" font-weight="normal" text-decoration="none" x="163" y="396.5">开始</text></g></g><g transform="translate(-102,-102) scale(1,1)"><g><path fill="none" stroke="none"/><text fill="#000000" stroke="none" font-family="Arial" font-size="13px" font-style="normal" font-weight="normal" text-decoration="none" x="176" y="369.5"></text></g></g><g transform="translate(-102,-102) scale(1,1)"><rect fill="#C0C0C0" stroke="none" x="335" y="359" width="215" height="63" opacity="0.2"/></g><g transform="translate(-102,-102) scale(1,1)"><rect fill="#ffffff" stroke="none" x="328" y="352" width="215" height="63"/></g><g transform="translate(-102,-102) scale(1,1)"><path fill="none" stroke="#000000" d="M 328 352 L 543 352 L 543 415 L 328 415 L 328 352 Z Z" stroke-miterlimit="10"/></g><g transform="translate(-102,-102) scale(1,1)"><g><path fill="none" stroke="none"/><text fill="#000000" stroke="none" font-family="Arial" font-size="13px" font-style="normal" font-weight="normal" text-decoration="none" x="390" y="369.5">机械臂数据加工</text></g></g><g transform="translate(-102,-102) scale(1,1)"><g><path fill="none" stroke="none"/><text fill="#000000" stroke="none" font-family="Arial" font-size="13px" font-style="normal" font-weight="normal" text-decoration="none" x="355.33544921875" y="387.5">导航数据过滤器-空间到空间</text></g></g><g transform="translate(-102,-102) scale(1,1)"><g><path fill="none" stroke="none"/><text fill="#000000" stroke="none" font-family="Arial" font-size="13px" font-style="normal" font-weight="normal" text-decoration="none" x="-0.5" y="12.5"></text></g></g><g transform="translate(-102,-102) scale(1,1)"><path fill="none" stroke="#000000" d="M 240 381 L 328 381" stroke-miterlimit="10"/></g><g transform="translate(-102,-102) scale(1,1)"><path fill="#000000" stroke="none" d="M 317.83732514237585 385.209517756016 L 328 381 L 317.83732514237585 376.790482243984"/></g><g transform="translate(-102,-102) scale(1,1)"><path fill="none" stroke="#000000" d="M 317.83732514237585 385.209517756016 L 328 381 L 317.83732514237585 376.790482243984 L 317.83732514237585 385.209517756016" stroke-miterlimit="10"/></g><g transform="translate(-102,-102) scale(1,1)"><rect fill="#C0C0C0" stroke="none" x="735" y="359" width="215" height="63" opacity="0.2"/></g><g transform="translate(-102,-102) scale(1,1)"><rect fill="#ffffff" stroke="none" x="728" y="352" width="215" height="63"/></g><g transform="translate(-102,-102) scale(1,1)"><path fill="none" stroke="#000000" d="M 728 352 L 943 352 L 943 415 L 728 415 L 728 352 Z Z" stroke-miterlimit="10"/></g><g transform="translate(-102,-102) scale(1,1)"><g><path fill="none" stroke="none"/><text fill="#000000" stroke="none" font-family="Arial" font-size="13px" font-style="normal" font-weight="normal" text-decoration="none" x="803" y="369.5">计算点距离</text></g></g><g transform="translate(-102,-102) scale(1,1)"><g><path fill="none" stroke="none"/><text fill="#000000" stroke="none" font-family="Arial" font-size="13px" font-style="normal" font-weight="normal" text-decoration="none" x="790" y="387.5">空间点数据结构</text></g></g><g transform="translate(-102,-102) scale(1,1)"><g><path fill="none" stroke="none"/><text fill="#000000" stroke="none" font-family="Arial" font-size="13px" font-style="normal" font-weight="normal" text-decoration="none" x="-0.5" y="12.5"></text></g></g><g transform="translate(-102,-102) scale(1,1)"><path fill="none" stroke="#000000" d="M 543 383 L 728 383" stroke-miterlimit="10"/></g><g transform="translate(-102,-102) scale(1,1)"><path fill="#000000" stroke="none" d="M 717.8373251423759 387.209517756016 L 728 383 L 717.8373251423758 378.790482243984"/></g><g transform="translate(-102,-102) scale(1,1)"><path fill="none" stroke="#000000" d="M 717.8373251423759 387.209517756016 L 728 383 L 717.8373251423758 378.790482243984 L 717.8373251423759 387.209517756016" stroke-miterlimit="10"/></g><g transform="translate(-102,-102) scale(1,1)"><g><path fill="none" stroke="none"/><text fill="#000000" stroke="none" font-family="Arial" font-size="13px" font-style="normal" font-weight="normal" text-decoration="none" x="560.5" y="374.5">输出机械臂末端位置(NDI)</text></g></g><g transform="translate(-102,-102) scale(1,1)"><path fill="#C0C0C0" stroke="none" d="M 1081 359 L 1196 359 Q 1206 359 1206 369 L 1206 412 Q 1206 422 1196 422 L 1081 422 Q 1071 422 1071 412 L 1071 369 Q 1071 359 1081 359 Z" opacity="0.2"/></g><g transform="translate(-102,-102) scale(1,1)"><path fill="#ffffff" stroke="none" d="M 1074 352 L 1189 352 Q 1199 352 1199 362 L 1199 405 Q 1199 415 1189 415 L 1074 415 Q 1064 415 1064 405 L 1064 362 Q 1064 352 1074 352 Z"/></g><g transform="translate(-102,-102) scale(1,1)"><path fill="none" stroke="#000000" d="M 1074 352 L 1189 352 Q 1199 352 1199 362 L 1199 405 Q 1199 415 1189 415 L 1074 415 Q 1064 415 1064 405 L 1064 362 Q 1064 352 1074 352 Z" stroke-miterlimit="10"/></g><g transform="translate(-102,-102) scale(1,1)"><path fill="none" stroke="#000000" d="M 1064 375 L 1199 375" stroke-miterlimit="10"/></g><g transform="translate(-102,-102) scale(1,1)"><g><path fill="none" stroke="none"/><text fill="#000000" stroke="none" font-family="Arial" font-size="13px" font-style="normal" font-weight="normal" text-decoration="none" x="1118.5" y="396.5">结束</text></g></g><g transform="translate(-102,-102) scale(1,1)"><g><path fill="none" stroke="none"/><text fill="#000000" stroke="none" font-family="Arial" font-size="13px" font-style="normal" font-weight="normal" text-decoration="none" x="1131.5" y="369.5"></text></g></g><g transform="translate(-102,-102) scale(1,1)"><path fill="none" stroke="#000000" d="M 943 383 L 1064 383" stroke-miterlimit="10"/></g><g transform="translate(-102,-102) scale(1,1)"><path fill="#000000" stroke="none" d="M 1053.837325142376 387.209517756016 L 1064 383 L 1053.837325142376 378.790482243984"/></g><g transform="translate(-102,-102) scale(1,1)"><path fill="none" stroke="#000000" d="M 1053.837325142376 387.209517756016 L 1064 383 L 1053.837325142376 378.790482243984 L 1053.837325142376 387.209517756016" stroke-miterlimit="10"/></g><g transform="translate(-102,-102) scale(1,1)"><g><path fill="none" stroke="none"/><text fill="#000000" stroke="none" font-family="Arial" font-size="13px" font-style="normal" font-weight="normal" text-decoration="none" x="983.5" y="374.5">误差值</text></g></g><g transform="translate(-102,-102) scale(1,1)"><rect fill="#C0C0C0" stroke="none" x="735" y="519" width="288" height="32" opacity="0.2"/></g><g transform="translate(-102,-102) scale(1,1)"><rect fill="#ffffff" stroke="none" x="728" y="512" width="288" height="32"/></g><g transform="translate(-102,-102) scale(1,1)"><path fill="none" stroke="#000000" d="M 728 512 L 728 544" stroke-miterlimit="10"/></g><g transform="translate(-102,-102) scale(1,1)"><path fill="none" stroke="#000000" d="M 728 512 L 1016 512" stroke-miterlimit="10"/></g><g transform="translate(-102,-102) scale(1,1)"><path fill="none" stroke="#000000" d="M 728 544 L 1016 544" stroke-miterlimit="10"/></g><g transform="translate(-102,-102) scale(1,1)"><path fill="none" stroke="#000000" d="M 760.38818359375 512 L 760.38818359375 544" stroke-miterlimit="10"/></g><g transform="translate(-102,-102) scale(1,1)"><g><path fill="none" stroke="none"/><text fill="#000000" stroke="none" font-family="Arial" font-size="13px" font-style="normal" font-weight="normal" text-decoration="none" x="783.31494140625" y="534.5">mitk::TrackingDeviceSource::Pointer</text></g></g><g transform="translate(-102,-102) scale(1,1)"><g><path fill="none" stroke="none"/><text fill="#000000" stroke="none" font-family="Arial" font-size="13px" font-style="normal" font-weight="normal" text-decoration="none" x="732.5" y="534.5">NDI</text></g></g><g transform="translate(-102,-102) scale(1,1)"><path fill="none" stroke="#000000" d="M 836 512 L 836 415" stroke-miterlimit="10"/></g><g transform="translate(-102,-102) scale(1,1)"><path fill="#000000" stroke="none" d="M 840.209517756016 425.16267485762415 L 836 415 L 831.790482243984 425.16267485762415"/></g><g transform="translate(-102,-102) scale(1,1)"><path fill="none" stroke="#000000" d="M 840.209517756016 425.16267485762415 L 836 415 L 831.790482243984 425.16267485762415 L 840.209517756016 425.16267485762415" stroke-miterlimit="10"/></g><g transform="translate(-102,-102) scale(1,1)"><g><path fill="none" stroke="none"/><text fill="#000000" stroke="none" font-family="Arial" font-size="13px" font-style="normal" font-weight="normal" text-decoration="none" x="755.5" y="468.5">机械臂注册Marker位置</text></g></g><g transform="translate(-102,-102) scale(1,1)"><rect fill="#C0C0C0" stroke="none" x="711" y="119" width="287" height="32" opacity="0.2"/></g><g transform="translate(-102,-102) scale(1,1)"><rect fill="#ffffff" stroke="none" x="704" y="112" width="287" height="32"/></g><g transform="translate(-102,-102) scale(1,1)"><path fill="none" stroke="#000000" d="M 704 112 L 704 144" stroke-miterlimit="10"/></g><g transform="translate(-102,-102) scale(1,1)"><path fill="none" stroke="#000000" d="M 704 112 L 991 112" stroke-miterlimit="10"/></g><g transform="translate(-102,-102) scale(1,1)"><path fill="none" stroke="#000000" d="M 704 144 L 991 144" stroke-miterlimit="10"/></g><g transform="translate(-102,-102) scale(1,1)"><path fill="none" stroke="#000000" d="M 748.68994140625 112 L 748.68994140625 144" stroke-miterlimit="10"/></g><g transform="translate(-102,-102) scale(1,1)"><g><path fill="none" stroke="none"/><text fill="#000000" stroke="none" font-family="Arial" font-size="13px" font-style="normal" font-weight="normal" text-decoration="none" x="764.9658203125" y="134.5">mitk::TrackingDeviceSource::Pointer</text></g></g><g transform="translate(-102,-102) scale(1,1)"><g><path fill="none" stroke="none"/><text fill="#000000" stroke="none" font-family="Arial" font-size="13px" font-style="normal" font-weight="normal" text-decoration="none" x="708.5" y="134.5">Robot</text></g></g><g transform="translate(-102,-102) scale(1,1)"><rect fill="#C0C0C0" stroke="none" x="151" y="567" width="287" height="32" opacity="0.2"/></g><g transform="translate(-102,-102) scale(1,1)"><rect fill="#ffffff" stroke="none" x="144" y="560" width="287" height="32"/></g><g transform="translate(-102,-102) scale(1,1)"><path fill="none" stroke="#000000" d="M 144 560 L 144 592" stroke-miterlimit="10"/></g><g transform="translate(-102,-102) scale(1,1)"><path fill="none" stroke="#000000" d="M 144 560 L 431 560" stroke-miterlimit="10"/></g><g transform="translate(-102,-102) scale(1,1)"><path fill="none" stroke="#000000" d="M 144 592 L 431 592" stroke-miterlimit="10"/></g><g transform="translate(-102,-102) scale(1,1)"><path fill="none" stroke="#000000" d="M 188.68994140625 560 L 188.68994140625 592" stroke-miterlimit="10"/></g><g transform="translate(-102,-102) scale(1,1)"><g><path fill="none" stroke="none"/><text fill="#000000" stroke="none" font-family="Arial" font-size="13px" font-style="normal" font-weight="normal" text-decoration="none" x="204.9658203125" y="582.5">mitk::TrackingDeviceSource::Pointer</text></g></g><g transform="translate(-102,-102) scale(1,1)"><g><path fill="none" stroke="none"/><text fill="#000000" stroke="none" font-family="Arial" font-size="13px" font-style="normal" font-weight="normal" text-decoration="none" x="148.5" y="582.5">Robot</text></g></g><g transform="translate(-102,-102) scale(1,1)"><path fill="none" stroke="#000000" d="M 844 144 L 844 264" stroke-miterlimit="10"/></g><g transform="translate(-102,-102) scale(1,1)"><path fill="#000000" stroke="none" d="M 839.790482243984 253.83732514237585 L 844 264 L 848.209517756016 253.83732514237585"/></g><g transform="translate(-102,-102) scale(1,1)"><path fill="none" stroke="#000000" d="M 839.790482243984 253.83732514237585 L 844 264 L 848.209517756016 253.83732514237585 L 839.790482243984 253.83732514237585" stroke-miterlimit="10"/></g><g transform="translate(-102,-102) scale(1,1)"><g><path fill="none" stroke="none"/><text fill="#000000" stroke="none" font-family="Arial" font-size="13px" font-style="normal" font-weight="normal" text-decoration="none" x="812.5" y="209.5">机械臂末端位置</text></g></g><g transform="translate(-102,-102) scale(1,1)"><path fill="none" stroke="#000000" d="M 344 560 L 344 415" stroke-miterlimit="10"/></g><g transform="translate(-102,-102) scale(1,1)"><path fill="#000000" stroke="none" d="M 348.209517756016 425.16267485762415 L 344 415 L 339.790482243984 425.16267485762415"/></g><g transform="translate(-102,-102) scale(1,1)"><path fill="none" stroke="#000000" d="M 348.209517756016 425.16267485762415 L 344 415 L 339.790482243984 425.16267485762415 L 348.209517756016 425.16267485762415" stroke-miterlimit="10"/></g><g transform="translate(-102,-102) scale(1,1)"><g><path fill="none" stroke="none"/><text fill="#000000" stroke="none" font-family="Arial" font-size="13px" font-style="normal" font-weight="normal" text-decoration="none" x="283.5" y="492.5">机械臂末端位置</text></g></g><g transform="translate(-102,-102) scale(1,1)"><rect fill="#C0C0C0" stroke="none" x="375" y="511" width="314.29541015625" height="32" opacity="0.2"/></g><g transform="translate(-102,-102) scale(1,1)"><rect fill="#ffffff" stroke="none" x="368" y="504" width="314.29541015625" height="32"/></g><g transform="translate(-102,-102) scale(1,1)"><path fill="none" stroke="#000000" d="M 368 504 L 368 536" stroke-miterlimit="10"/></g><g transform="translate(-102,-102) scale(1,1)"><path fill="none" stroke="#000000" d="M 368 504 L 682.29541015625 504" stroke-miterlimit="10"/></g><g transform="translate(-102,-102) scale(1,1)"><path fill="none" stroke="#000000" d="M 368 536 L 682.29541015625 536" stroke-miterlimit="10"/></g><g transform="translate(-102,-102) scale(1,1)"><path fill="none" stroke="#000000" d="M 458.9072265625 504 L 458.9072265625 536" stroke-miterlimit="10"/></g><g transform="translate(-102,-102) scale(1,1)"><g><path fill="none" stroke="none"/><text fill="#000000" stroke="none" font-family="Arial" font-size="13px" font-style="normal" font-weight="normal" text-decoration="none" x="468.4072265625" y="526.5">机械臂与NDI空间坐标系的转换矩阵</text></g></g><g transform="translate(-102,-102) scale(1,1)"><g><path fill="none" stroke="none"/><text fill="#000000" stroke="none" font-family="Arial" font-size="13px" font-style="normal" font-weight="normal" text-decoration="none" x="372.5" y="526.5">ConvertMatrix</text></g></g><g transform="translate(-102,-102) scale(1,1)"><path fill="none" stroke="#000000" d="M 456 504 L 456 415" stroke-miterlimit="10"/></g><g transform="translate(-102,-102) scale(1,1)"><path fill="#000000" stroke="none" d="M 460.209517756016 425.16267485762415 L 456 415 L 451.790482243984 425.16267485762415"/></g><g transform="translate(-102,-102) scale(1,1)"><path fill="none" stroke="#000000" d="M 460.209517756016 425.16267485762415 L 456 415 L 451.790482243984 425.16267485762415 L 460.209517756016 425.16267485762415" stroke-miterlimit="10"/></g><g transform="translate(-102,-102) scale(1,1)"><g><path fill="none" stroke="none"/><text fill="#000000" stroke="none" font-family="Arial" font-size="13px" font-style="normal" font-weight="normal" text-decoration="none" x="414.5" y="464.5">转换矩阵</text></g></g></g></svg>