<svg version="1.1" xmlns="http://www.w3.org/2000/svg" xmlns:xlink="http://www.w3.org/1999/xlink" width="417.38134765625" height="317"><defs/><g><g transform="translate(-742,-110) scale(1,1)"><rect fill="#C0C0C0" stroke="none" x="759" y="311" width="397.38134765625" height="113" opacity="0.2"/></g><g transform="translate(-742,-110) scale(1,1)"><rect fill="#ffffff" stroke="none" x="752" y="304" width="397.38134765625" height="113"/></g><g transform="translate(-742,-110) scale(1,1)"><path fill="none" stroke="#000000" d="M 752 304 L 1149.38134765625 304 L 1149.38134765625 417 L 752 417 L 752 304 Z Z" stroke-miterlimit="10"/></g><g transform="translate(-742,-110) scale(1,1)"><path fill="none" stroke="#000000" d="M 752 342 L 1149.38134765625 342" stroke-miterlimit="10"/></g><g transform="translate(-742,-110) scale(1,1)"><path fill="none" stroke="#000000" d="M 752 365 L 1149.38134765625 365" stroke-miterlimit="10"/></g><g transform="translate(-742,-110) scale(1,1)"><g><path fill="none" stroke="none"/><text fill="#000000" stroke="none" font-family="Arial" font-size="13px" font-style="normal" font-weight="normal" text-decoration="none" x="903.71484375" y="321.5">«lancet::spatial»</text></g></g><g transform="translate(-742,-110) scale(1,1)"><g><path fill="none" stroke="none"/><text fill="#000000" stroke="none" font-family="Arial" font-size="13px" font-style="normal" font-weight="bold" text-decoration="none" x="806.5322265625" y="336.5">SpatialFittingNavigationToolToNavigationToolFilter</text></g></g><g transform="translate(-742,-110) scale(1,1)"><g><path fill="none" stroke="none"/><text fill="#000000" stroke="none" font-family="Arial" font-size="13px" font-style="normal" font-weight="normal" text-decoration="none" x="757" y="359.5">-baseUCSTool: mitk::NavigationData::Pointer</text></g></g><g transform="translate(-742,-110) scale(1,1)"><g><path fill="none" stroke="none"/><text fill="#000000" stroke="none" font-family="Arial" font-size="13px" font-style="normal" font-weight="normal" text-decoration="none" x="757" y="382.5">«mitk::NavigationData::Pointer»+GetBaseUCSTool()</text></g></g><g transform="translate(-742,-110) scale(1,1)"><g><path fill="none" stroke="none"/><text fill="#000000" stroke="none" font-family="Arial" font-size="13px" font-style="normal" font-weight="normal" text-decoration="none" x="757" y="397.5">«void»+SetBaseUCSTool(mitk::NavigationData::Pointer ucs)</text></g></g><g transform="translate(-742,-110) scale(1,1)"><g><path fill="none" stroke="none"/><text fill="#000000" stroke="none" font-family="Arial" font-size="13px" font-style="normal" font-weight="normal" text-decoration="none" x="757" y="412.5">«virtual void»#GenerateData() {type="override"}</text></g></g><g transform="translate(-742,-110) scale(1,1)"><rect fill="#C0C0C0" stroke="none" x="839" y="127" width="244.96142578125" height="37" opacity="0.2"/></g><g transform="translate(-742,-110) scale(1,1)"><rect fill="#ffffff" stroke="none" x="832" y="120" width="244.96142578125" height="37"/></g><g transform="translate(-742,-110) scale(1,1)"><path fill="none" stroke="#000000" d="M 832 120 L 1076.96142578125 120 L 1076.96142578125 157 L 832 157 L 832 120 Z Z" stroke-miterlimit="10"/></g><g transform="translate(-742,-110) scale(1,1)"><rect fill="#ffffff" stroke="none" x="832" y="120" width="244.96142578125" height="37"/></g><g transform="translate(-742,-110) scale(1,1)"><path fill="none" stroke="#000000" d="M 832 120 L 1076.96142578125 120 L 1076.96142578125 157 L 832 157 L 832 120 Z Z" stroke-miterlimit="10"/></g><g transform="translate(-742,-110) scale(1,1)"><g><path fill="none" stroke="none"/><text fill="#000000" stroke="none" font-family="Arial" font-size="13px" font-style="normal" font-weight="normal" text-decoration="none" x="935.336181640625" y="137.5">«mitk»</text></g></g><g transform="translate(-742,-110) scale(1,1)"><g><path fill="none" stroke="none"/><text fill="#000000" stroke="none" font-family="Arial" font-size="13px" font-style="normal" font-weight="bold" text-decoration="none" x="844.285400390625" y="152.5">NavigationDataToNavigationDataFilter</text><path fill="none" stroke="#000000" d="M 1072.46142578125 152.5 L 836.5 152.5" stroke-miterlimit="10"/></g></g><g transform="translate(-742,-110) scale(1,1)"><path fill="none" stroke="#000000" d="M 951 303 L 954 158" stroke-miterlimit="10" stroke-dasharray="3"/></g><g transform="translate(-742,-110) scale(1,1)"><path fill="none" stroke="#000000" d="M 957.9983998279686 168.24757526518837 L 954 158 L 949.5811656715175 168.07342559298596" stroke-miterlimit="10"/></g></g></svg>